<svg width="143" height="49" viewBox="0 0 143 49" fill="none" xmlns="http://www.w3.org/2000/svg">
<rect x="0.655273" y="0.553711" width="48" height="48" rx="12" fill="#0582FF"/>
<path d="M32.9025 39.5537H25.3905C22.4325 39.5537 20.0355 37.1567 20.0355 34.1987V18.8477C20.0355 17.8637 19.2375 17.0627 18.2505 17.0627H12.8955V9.55371H31.1175C34.0755 9.55371 36.4725 11.9507 36.4725 14.9087V17.0627H22.1925C25.1505 17.0627 27.5475 19.4597 27.5475 22.4177V34.1957C27.5475 37.1537 29.9445 39.5507 32.9025 39.5507V39.5537Z" fill="white"/>
<path d="M36.475 34.1986C36.475 36.1696 34.876 37.7686 32.905 37.7686C30.934 37.7686 29.335 36.1696 29.335 34.1986V27.0586C29.335 29.0296 30.934 30.6286 32.905 30.6286C34.876 30.6286 36.475 32.2276 36.475 34.1986Z" fill="white"/>
<path d="M64.6475 18.8524H60.6553V16.1499H72.0499V18.8524H68.0813V29.6782H64.6475V18.8524Z" fill="#0F172A"/>
<path d="M80.1893 26.8443C80.1893 27.885 80.2627 29.4079 80.3229 29.6779H77.201C77.1224 29.4761 77.0621 28.9466 77.0569 28.7447C76.6453 29.324 75.9507 29.9164 74.2154 29.9164C71.7907 29.9164 70.6846 28.3411 70.6846 26.6739C70.6846 24.3096 72.5902 23.2375 75.6283 23.2375H76.9835V22.6687C76.9835 21.9897 76.7344 21.4052 75.6361 21.4052C74.6217 21.4052 74.3753 21.8272 74.2652 22.535H71.159C71.3084 20.687 72.4382 19.1719 75.7488 19.1876C78.7266 19.206 80.1945 20.3567 80.1945 22.8233V26.8417L80.1893 26.8443ZM76.9808 25.1012H76.0005C74.467 25.1012 73.9664 25.5966 73.9664 26.4433C73.9664 27.0933 74.3491 27.649 75.2482 27.649C76.7895 27.649 76.9808 26.5743 76.9808 25.3764V25.1012Z" fill="#0F172A"/>
<path d="M84.5214 26.5485C84.7075 27.2667 85.3104 27.6651 86.2462 27.6651C87.1322 27.6651 87.4624 27.3768 87.4624 26.8499C87.4624 26.2864 87.0247 26.0819 85.6669 25.7542C82.2042 24.9233 81.6799 23.8276 81.6799 22.3728C81.6799 20.918 82.7363 19.188 86.0286 19.188C89.3209 19.188 90.3773 20.9154 90.4638 22.3152H87.389C87.3104 21.9849 87.1059 21.3636 85.9028 21.3636C85.1217 21.3636 84.8543 21.6965 84.8543 22.0897C84.8543 22.5275 85.161 22.7293 86.794 23.1041C90.2121 23.8879 90.7443 25.0701 90.7443 26.6035C90.7443 28.3257 89.4598 29.9194 86.1282 29.9194C82.7966 29.9194 81.5541 28.3624 81.3418 26.5485H84.5214Z" fill="#0F172A"/>
<path d="M95.2345 23.5391C95.9239 22.5273 97.0274 21.117 98.3433 19.4289H102.094L98.6709 23.2717C98.781 23.5129 102.286 29.4421 102.393 29.6781H98.6683C98.6421 29.5942 96.4507 25.4369 96.4324 25.3792L95.2319 26.5588V29.6781H91.9238V15.3765H95.2319V23.5391H95.2345Z" fill="#0F172A"/>
<path d="M103.081 15.3765H106.389V20.404C106.818 19.8038 107.642 19.1904 109.227 19.1904C111.972 19.1904 113.382 21.4394 113.382 24.3726C113.382 27.3058 111.846 29.9218 108.934 29.9218C107.461 29.9218 106.829 29.4841 106.344 28.813C106.344 29.0961 106.286 29.4317 106.231 29.6807H103.06C103.081 28.5929 103.081 27.4631 103.081 26.3648V15.3765ZM110.027 24.4434C110.027 22.8366 109.508 21.7094 108.142 21.7094C106.777 21.7094 106.25 22.6347 106.25 24.6138C106.25 26.239 106.677 27.4264 108.119 27.4264C109.393 27.4264 110.027 26.2416 110.027 24.4434Z" fill="#0F172A"/>
<path d="M124.077 26.6083C124.077 27.5703 124.077 28.6949 124.095 29.6778H120.85C120.808 29.4105 120.79 28.8705 120.771 28.5822C120.132 29.5756 119.246 29.9216 117.987 29.9216C115.809 29.9216 114.577 28.569 114.577 26.1155V19.4287H117.883V25.4969C117.883 26.5323 118.194 27.3318 119.235 27.3318C120.276 27.3318 120.763 26.7551 120.763 24.9674V19.4287H124.071V26.6057L124.077 26.6083Z" fill="#0F172A"/>
<path d="M125.694 22.2601C125.694 21.3165 125.694 20.3518 125.673 19.4291H128.913C128.955 19.6782 128.997 20.69 128.997 21.1408C129.419 20.0609 130.459 19.1932 132.216 19.188V22.2837C130.132 22.1998 129.002 22.6533 129.002 25.3663V29.6756H125.694V22.2575V22.2601Z" fill="#0F172A"/>
<path d="M142.73 28.2916C142.73 31.6022 141.545 33.7307 137.446 33.7307C133.346 33.7307 132.79 31.5498 132.698 30.4331H136.033C136.198 31.0177 136.599 31.4502 137.587 31.4502C139.189 31.4502 139.477 30.4856 139.477 28.6376V28.1841C138.948 28.9967 138.135 29.5209 136.68 29.5209C133.957 29.5209 132.468 27.2876 132.468 24.5877C132.468 21.4081 134.355 19.1958 136.932 19.1958C138.62 19.1958 139.333 19.9769 139.477 20.4226C139.498 20.1814 139.571 19.5995 139.592 19.4343H142.751C142.73 20.3544 142.73 21.3216 142.73 22.3728V28.2968V28.2916ZM135.86 24.4305C135.86 26.0635 136.609 26.994 137.713 26.994C139.207 26.994 139.582 25.9377 139.582 24.3649C139.582 22.7922 139.367 21.6886 137.771 21.6886C136.746 21.6886 135.86 22.4645 135.86 24.4278V24.4305Z" fill="#0F172A"/>
</svg>
